PathFileType	4	(X/Y/Z)	Patient4_TMGait_0pt3_02_left_02.trc.trc
DataRate	CameraRate	NumFrames	NumMarkers	Units	OrigDataRate	OrigDataStartFrame	OrigNumFrames
48.275862068966	48.275862068966	4	33	mm	48.275862068966	1	       141
Frame#	Time	Sacral			L.Shoulder			Chest			R.Shoulder			Neck			R.ASIS			L.ASIS			R.Thigh.Superior			R.Thigh.Lateral			R.Thigh.Inferior			R.Patella			L.Thigh.Superior			L.Thigh.Lateral			L.Thigh.Inferior			L.Patella			L.Shank.Superior			L.Shank.Lateral			L.Shank.Inferior			R.Shank.Superior			R.Shank.Lateral			R.Shank.Inferior			R.Heel			R.Midfoot.Superior			R.Midfoot.Lateral			R.Toe			L.Heel			L.Midfoot.Lateral			L.Midfoot.Superior			L.Toe			L.Elbow			L.Wrist			R.Elbow			R.Wrist			
		X1	Y1	Z1	X2	Y2	Z2	X3	Y3	Z3	X4	Y4	Z4	X5	Y5	Z5	X6	Y6	Z6	X7	Y7	Z7	X8	Y8	Z8	X9	Y9	Z9	X10	Y10	Z10	X11	Y11	Z11	X12	Y12	Z12	X13	Y13	Z13	X14	Y14	Z14	X15	Y15	Z15	X16	Y16	Z16	X17	Y17	Z17	X18	Y18	Z18	X19	Y19	Z19	X20	Y20	Z20	X21	Y21	Z21	X22	Y22	Z22	X23	Y23	Z23	X24	Y24	Z24	X25	Y25	Z25	X26	Y26	Z26	X27	Y27	Z27	X28	Y28	Z28	X29	Y29	Z29	X30	Y30	Z30	X31	Y31	Z31	X32	Y32	Z32	X33	Y33	Z33	

1	3.120000000000	721.469679893777	1004.089068983439	541.601325310670	931.653933984009	1436.083791995458	386.248244430676	1007.692380857832	1362.349277406817	559.121188720964	900.279291053767	1433.490157039380	719.896930469646	891.404558369612	1494.126935764735	541.328320703114	942.365487323550	940.313105749161	680.252036476307	951.385505578408	960.783097915612	406.309102664516	991.592063863068	740.954913146265	643.770123077034	908.008782989444	626.520975470141	689.489236018462	991.024509744268	579.766596192856	611.618614183535	992.985748702925	489.800920708257	612.860715240697	1012.566811145156	754.038399402129	442.566881059252	953.177609807423	631.208661768758	366.975074191071	1037.369955725932	555.980527239366	443.112291701558	1035.356977220485	466.016866088591	435.739656367095	961.692605388499	410.519399432220	417.566046336224	821.636284086378	386.236716709473	353.999446865479	789.881715100373	257.096120517778	401.264022084248	960.606301753189	401.192692468556	613.828327368062	882.547334548850	297.842618090500	667.486071208221	922.326887622644	204.222074985064	602.103704301090	783.101495397527	43.173780150750	561.561880310839	952.837896420096	96.870534166854	605.719579175138	862.900636178373	37.139880168019	640.357888549705	1071.278143116532	44.353962196392	639.465547448756	590.347725436273	211.598620474107	420.115232862044	650.683032888674	165.683873662502	341.868334808768	754.138086329487	160.099100268515	372.040096943404	822.181607146277	42.602105549896	341.326617386731	1000.763424874162	1094.857489826902	256.786315963263	1222.283858599178	951.737384304303	266.769754767137	808.533974022967	1097.630690448830	839.267359934624	881.673094008026	849.399379342628	889.142639715143	
2	3.140714285714	719.999040509293	1001.069346990010	546.410270162408	927.000388124103	1432.651557100037	386.165657128560	1005.847286695793	1360.203714290763	558.240018173468	900.930164092052	1431.996353402269	720.303934195956	889.406387282216	1491.774460239018	541.462816970254	943.138959393098	938.400677397567	681.821132856161	948.224070035799	959.148364016278	407.782097107326	993.915436143469	739.543445975795	644.209794264376	911.641205474230	623.987396221299	689.962328851216	994.474760187929	578.151781988945	611.237381405417	996.970920015465	486.963403897774	612.214263772810	1014.189855291484	756.165662653984	445.678762001866	958.789904065844	632.060311768253	370.369104278492	1044.556689221836	559.285272577846	447.120908787244	1045.127813841513	469.098528381222	439.521393479330	972.693981883234	411.995047836228	420.929648591139	832.698977260209	384.942512980433	358.243844816890	804.416206297548	254.808736774206	404.816428387324	962.034341145218	398.579198286772	613.184780550427	882.295459355547	296.831917692093	667.254877385423	919.246329457615	202.718830170406	601.487074999446	776.846485779364	43.293127335779	561.520496354443	946.448786440740	96.263743426793	604.767685500733	856.656757550213	37.187977479606	640.293103744083	1065.073917364242	44.037100291410	639.489774819237	606.220099854583	203.285003652140	424.944296103239	667.166545555029	160.598633490868	345.552410543308	770.874135891950	158.193020251534	374.996291231539	842.434273011378	43.611627821625	342.008436535596	989.352267890496	1088.138769844867	261.462703631066	1192.435474189141	926.533949889940	269.766766521814	818.532523094744	1094.637885601799	842.739182598375	905.859570236156	851.997390398262	891.151026856995	
3	3.161428571429	718.479897201955	997.937961923414	551.304483348292	922.171509166335	1429.045532070493	386.035323813250	1003.940904924679	1357.933911506756	557.259505813806	901.628776008593	1430.395798938176	720.669534774717	887.360537523773	1489.304775125792	541.547264016306	943.913667530848	936.384404082103	683.381713426436	944.985001407841	957.417199097833	409.237996062356	996.140089174683	738.028554007397	644.614296142078	915.220953108600	621.380618530795	690.435935201608	997.823522854830	576.450834815359	610.830793763308	1000.825360017082	484.050770380579	611.535698961171	1015.742814291364	758.272237941569	448.596150057152	964.302135944813	632.893054536470	373.593091491391	1051.748667843266	562.659298616431	450.838258815119	1054.985658123846	472.333109926605	443.008251865017	983.990646649062	413.509598838509	424.072358303971	844.176288052187	383.142184376182	362.407253018504	819.934638436461	252.007973584865	408.304928221328	963.339936208606	395.889921369721	612.523016140944	881.904728291860	295.766715315278	667.014910627399	916.000745542550	201.165899814372	600.852266927226	770.394346468239	43.409864558579	561.473858874013	939.919830281016	95.758250174398	603.970129902920	850.214020957238	37.235407606633	640.231597034000	1058.670510020006	43.708300653074	639.517787471979	623.476880292862	193.795882272500	429.892790265954	685.011541263979	154.478728993532	349.327922692650	788.904039557102	155.651384434716	377.944503265853	864.267476908352	44.315540411700	342.670956364940	977.185983855749	1081.174020699385	266.234220225490	1160.782771749694	901.315284408311	272.978191445617	829.152257009283	1091.506215140079	846.126951656385	931.460377081795	855.212057088920	892.713200963756	
4	3.182142857143	716.962271915603	994.805818704485	556.147531079383	917.255267980217	1425.368205311855	385.838029625201	1002.020655449899	1355.610485472824	556.153686225855	902.397426799431	1428.747028269529	720.947172070423	885.322893902606	1486.797515303615	541.549808193108	944.662134176651	934.323985404085	684.861000929320	941.716333424704	955.626711207727	410.622605715598	998.120237831717	736.435783869521	644.949428536632	918.547036434510	618.785999548264	690.894019046185	1000.850458486020	574.700026921195	610.399576753836	1004.288204087550	481.151711666170	610.834127933630	1017.113725606016	760.294770582291	451.141062493187	969.442572305670	633.698191805783	376.451757758546	1058.638200061560	566.020773806171	454.004233446190	1064.568390828625	475.699277250697	445.951230476316	995.277659329171	415.064082026460	426.784548806460	855.870222327255	380.708570741500	366.271475906438	836.349238579627	248.632616724395	411.554323900429	964.363298422147	393.211744010738	611.861556546979	881.279262642526	294.674983589471	666.773117488504	912.596455356182	199.613013716143	600.220578653976	763.870080828245	43.520899799039	561.427571972146	933.388852428773	95.392952185470	603.389065566362	843.695952539927	37.279973259372	640.176562635788	1052.189658652363	43.376031631081	639.550137554657	642.189254489507	183.028604656580	434.775686273501	704.275932183821	147.167111701433	353.058321422687	808.222225255969	152.360997984572	380.757907038370	887.660778856309	44.643623580588	343.300629348104	964.275222019642	1074.203541879749	270.939308056805	1127.655263264312	877.109486555905	276.392067219652	840.347056937568	1088.365667543645	849.256727811494	958.206282484799	859.405804424306	893.511265160589	
